<?xml version="1.0" standalone="no"?>
<!DOCTYPE svg PUBLIC "-//W3C//DTD SVG 20010904//EN"
 "http://www.w3.org/TR/2001/REC-SVG-20010904/DTD/svg10.dtd">
<svg version="1.0" xmlns="http://www.w3.org/2000/svg"
 width="306.000000pt" height="306.000000pt" viewBox="0 0 306.000000 306.000000"
 preserveAspectRatio="xMidYMid meet">
<metadata>
Created by potrace 1.11, written by Peter Selinger 2001-2013
</metadata>
<g transform="translate(0.000000,306.000000) scale(0.100000,-0.100000)"
fill="#000000" stroke="none">
<path d="M1400 3050 c-517 -40 -994 -359 -1229 -821 -67 -131 -123 -296 -146
-425 -23 -134 -30 -124 78 -124 261 0 455 79 1087 440 157 89 332 186 390 215
373 187 657 212 1065 96 72 -21 132 -34 133 -29 5 12 -68 102 -161 197 -205
210 -492 367 -778 425 -74 15 -283 37 -324 34 -11 0 -63 -4 -115 -8z"/>
<path d="M2915 1816 c-177 -64 -345 -158 -591 -331 -254 -179 -347 -226 -466
-233 -93 -5 -145 6 -258 58 -135 62 -225 74 -545 74 -327 -1 -648 -29 -970
-85 l-66 -11 7 -42 c34 -208 146 -462 280 -637 233 -306 561 -510 939 -585
129 -26 423 -26 560 0 309 57 581 201 800 421 124 124 202 229 276 368 154
293 210 640 156 961 -7 38 -16 71 -22 72 -5 2 -50 -12 -100 -30z"/>
</g>
</svg>
